<svg xmlns="http://www.w3.org/2000/svg">
  <symbol id="settings" viewBox="0 0 24 24">
    <path fill="none" stroke="currentColor" stroke-linecap="round" stroke-linejoin="round" d="M10.4 2h3.2l.5 2a8 8 0 0 1 1.8.7l1.8-1.1 2.3 2.3-1.1 1.8a8 8 0 0 1 .7 1.8l2 .5v3.2l-2 .5a8 8 0 0 1-.7 1.8l1.1 1.8-2.3 2.3-1.8-1.1a8 8 0 0 1-1.8.7l-.5 2h-3.2l-.5-2a8 8 0 0 1-1.8-.7l-1.8 1.1-2.3-2.3 1.1-1.8a8 8 0 0 1-.7-1.8l-2-.5v-3.2l2-.5a8 8 0 0 1 .7-1.8L3.9 6l2.3-2.3L8 4.8a8 8 0 0 1 1.8-.7Z" />
    <circle cx="12" cy="12" r="2.5" fill="none" stroke="currentColor" />
  </symbol>
</svg>
